<svg width="159" height="25" viewBox="0 0 159 25" fill="none" xmlns="http://www.w3.org/2000/svg">
<path d="M12.5106 18.3477L5.15707 22.0559L6.56148 14.2018L0.612314 8.63945L8.83385 7.49355L12.5106 0.347656L16.1874 7.49355L24.409 8.63945L18.4598 14.2018L19.8642 22.0559L12.5106 18.3477Z" fill="#F6D021"/>
<path d="M45.8725 18.3477L38.5189 22.0559L39.9233 14.2018L33.9741 8.63945L42.1957 7.49355L45.8725 0.347656L49.5492 7.49355L57.7708 8.63945L51.8216 14.2018L53.226 22.0559L45.8725 18.3477Z" fill="#F6D021"/>
<path d="M79.234 18.3477L71.8805 22.0559L73.2849 14.2018L67.3357 8.63945L75.5572 7.49355L79.234 0.347656L82.9108 7.49355L91.1324 8.63945L85.1832 14.2018L86.5876 22.0559L79.234 18.3477Z" fill="#F6D021"/>
<path d="M112.596 18.3477L105.242 22.0559L106.647 14.2018L100.698 8.63945L108.919 7.49355L112.596 0.347656L116.273 7.49355L124.494 8.63945L118.545 14.2018L119.949 22.0559L112.596 18.3477Z" fill="#F6D021"/>
<path d="M145.957 18.3477L138.604 22.0559L140.008 14.2018L134.059 8.63945L142.281 7.49355L145.957 0.347656L149.634 7.49355L157.856 8.63945L151.907 14.2018L153.311 22.0559L145.957 18.3477Z" fill="#F6D021"/>
</svg>
